<svg width="315" height="315" viewBox="0 0 315 315" fill="none" xmlns="http://www.w3.org/2000/svg">
  <path
    d="M73.9735 6.93332C67.5735 19.7333 59.5735 52.1333 55.1735 83.6C52.5068 103.2 51.9735 123.2 53.7068 136C54.5068 142.533 51.9735 158.667 48.3735 170C45.7068 178.133 40.7735 186.933 35.8402 192.133C31.3068 196.933 31.1735 197.333 33.4402 198.933C34.7735 200 38.1068 201.467 41.0402 202.267C45.8402 203.733 45.9735 204 43.1735 204.667C40.2402 205.333 40.5068 205.733 46.7735 210.4C55.7068 216.933 64.6402 226.667 87.0402 254.4C112.507 285.867 124.374 297.067 141.707 305.733C156.774 313.333 155.174 313.333 170.774 305.867C188.507 297.333 197.84 288.533 227.974 251.333C245.707 229.467 259.974 214.4 269.174 207.6L273.174 204.8L269.174 204.667C265.307 204.533 265.44 204.4 270.507 202.8C273.44 201.867 277.174 200.4 278.907 199.467L281.974 197.867L276.64 191.867C269.574 183.867 265.04 173.6 261.174 157.2C258.24 144.8 257.974 142.533 259.307 132.4C263.84 97.4666 245.44 2 234.107 2C232.774 2 227.84 5.19998 223.174 9.19998C208.107 21.7333 191.44 44 181.44 64.9333L175.84 76.4L161.84 75.7333C154.107 75.3333 145.44 75.6 142.374 76.4L136.907 77.6L131.44 66C128.507 59.6 122.24 48.8 117.707 41.8666C108.107 27.4666 83.7068 2 79.3068 2C77.4402 2 75.7068 3.59999 73.9735 6.93332ZM82.7735 11.7333C82.5068 12.5333 81.0402 14 79.4402 15.0667C76.7735 16.8 76.5068 16.8 76.5068 14.4C76.5068 13.0667 77.1735 11.2 77.9735 10.4C79.7068 8.66666 83.4402 9.73334 82.7735 11.7333ZM237.84 17.2C237.84 19.2 237.174 18.9333 233.574 15.4666C229.974 12 229.574 10.9333 231.174 10C233.574 8.53333 237.707 13.0666 237.84 17.2ZM92.1068 24.2667C109.974 43.6 124.774 69.3333 130.107 90.6666C131.84 97.3333 133.84 103.2 134.774 103.733C137.04 105.067 140.507 117.2 140.64 123.867L140.774 129.333L142.107 123.333C143.307 117.733 142.107 99.7333 139.707 88.2666C138.907 85.0666 139.174 84.6666 142.64 84.6666C144.774 84.6666 147.707 84.2666 149.307 83.8666C152.085 83.2052 152.107 83.5938 153.018 99.8781C153.026 100.007 153.033 100.136 153.04 100.267C155.44 148.533 156.907 150.8 158.507 108.8L159.574 83.4666L165.707 84.2666C169.04 84.6666 172.107 85.2 172.24 85.4666C172.507 85.6 172.107 90 171.307 95.2C170.507 100.267 169.974 109.733 169.974 116.267L170.107 128L171.707 120C172.64 115.6 174.24 109.6 175.307 106.667L177.174 101.333L178.774 112L179.04 106.533C179.574 91.6 189.44 66.1333 202.374 46.8C209.707 35.8667 226.374 16.6667 228.64 16.6667C229.307 16.6667 231.04 19.0667 232.507 22.1333L235.307 27.4666L229.307 34.1333C220.64 43.7333 211.04 58.9333 201.84 77.3333C195.04 90.9333 193.707 94.5333 193.307 102C193.04 106.8 193.04 108.933 193.44 106.933C193.974 103.467 194.374 103.2 197.574 104C204.64 105.733 219.84 113.333 227.04 119.067C235.707 125.733 247.574 139.067 251.44 146.667C253.84 151.333 254.107 153.6 253.574 166.667C252.374 192.267 246.507 202.933 224.507 220C205.574 234.667 199.84 243.2 193.707 265.333C189.974 279.333 186.64 285.467 181.44 288.667C175.974 292.133 167.707 292 162.107 288.667L157.707 286L160.374 282.267C161.707 280.267 165.04 276.533 167.707 274.133C170.374 271.6 172.507 268.667 172.507 267.6C172.507 266.667 170.774 264 168.64 261.867C165.174 258.4 163.84 258 156.24 258C148.507 258 147.307 258.4 143.44 262.133C141.04 264.4 139.174 266.8 139.174 267.467C139.174 268.133 142.507 272.133 146.507 276.133C150.507 280.267 153.84 284.4 153.84 285.333C153.84 287.867 145.574 291.333 139.44 291.333C135.574 291.333 132.907 290.4 129.84 287.867C124.507 283.333 122.774 279.733 118.507 264.667C112.374 242.667 106.24 233.867 87.0402 219.333C65.3068 202.667 59.1735 190.267 59.1735 163.333C59.3068 147.067 60.1068 145.067 73.7068 129.867C82.9068 119.733 96.1068 110.4 107.574 106.133C117.307 102.533 117.84 102.667 117.84 106.667C117.84 108.533 118.374 110 118.907 110C119.574 110 119.44 105.6 118.774 100.267C117.84 92.6666 115.974 87.6 110.24 76.2666C101.84 59.7333 89.7068 40.8 82.3735 32.8L77.4402 27.2L79.8402 22C81.1735 19.0667 82.9068 16.6667 83.5735 16.6667C84.3735 16.6667 88.2402 20.1333 92.1068 24.2667ZM245.84 45.7333C251.707 71.3333 255.574 105.2 254.374 120.4C253.574 132.533 253.44 132.8 251.174 130.4C248.907 128.133 248.907 127.333 250.507 118.667C251.574 113.467 252.374 106.667 252.374 103.333C252.374 98 252.24 97.6 250.64 99.7333C248.774 102.133 248.774 102.133 247.974 99.7333C247.574 98.4 246.24 92.2667 245.04 86C243.04 74.6667 238.507 62.2666 237.04 63.7333C236.64 64.1333 237.574 70.6666 239.174 78.2666C240.774 85.8666 242.374 98.9333 242.774 107.333L243.574 122.533L236.107 116C230.374 110.8 229.04 108.933 229.974 107.2C233.574 100.4 236.64 67.0666 233.84 65.3333C232.374 64.4 231.574 67.7333 230.64 78.2666C230.24 82.4 229.707 87.2 229.307 88.9333C227.04 100.533 225.174 107.6 224.24 108.133C222.507 109.2 200.774 99.2 199.974 97.0667C197.974 91.8667 220.64 49.7333 232.24 37.2C237.174 31.8666 239.44 27.4667 238.507 24.4C237.84 21.8667 238.107 22 239.84 25.0667C241.04 27.0667 243.707 36.4 245.84 45.7333ZM82.7735 40.5333C89.7068 49.0666 101.84 69.2 106.64 80.2666C108.507 84.5333 110.64 89.3333 111.44 90.8C113.174 94.4 112.507 98 109.84 99.4666C102.907 103.2 88.3735 108.933 87.7068 108.267C86.3735 107.067 84.3735 96.6666 82.5068 81.4666C81.5735 73.4666 79.9735 66.2666 79.1735 65.4666C76.7735 63.3333 78.3735 92.2666 81.1735 102.533C83.1735 110.267 83.1735 110.4 80.2402 112.4C78.5068 113.6 75.4402 116.267 73.3068 118.4L69.4402 122.133L70.2402 105.067C70.7735 95.4667 72.2402 83.0666 73.7068 76.6666C77.0402 62.9333 77.0402 62.5333 74.6402 64.6666C72.2402 66.6666 69.1735 76 67.1735 87.3333C66.3735 92.1333 65.3068 97.4666 65.0402 99.3333L64.2402 102.667L62.5068 99.3333C60.6452 96.142 60.6402 96.3986 60.5079 103.145C60.5076 103.163 60.5072 103.182 60.5068 103.2C60.5068 107.2 61.1735 114.133 61.9735 118.8C63.0402 125.2 63.0402 127.733 61.7068 130.267C59.9735 133.2 59.9735 133.2 59.0402 128C57.5735 120.133 57.7068 102.8 59.1735 90C61.1735 73.7333 66.9068 44.4 70.1068 34.2667L72.7735 25.4666L74.9068 29.3333C75.9735 31.6 79.5735 36.5333 82.7735 40.5333ZM263.04 180C264.507 183.333 267.307 188.133 269.307 190.667L272.774 195.333L259.974 208C252.507 215.333 246.374 220.267 245.307 219.867C243.307 219.067 236.907 226.133 214.774 253.333C205.44 264.8 201.04 271.067 201.84 272C202.64 273.067 201.44 275.067 198.374 278.133L193.707 282.667L194.64 278.667C195.84 273.467 197.574 270 199.174 270C199.84 270 201.307 266.533 202.507 262.4C203.707 258.133 205.574 253.067 206.64 251.2C209.574 245.333 221.707 232.8 230.507 226.533C240.374 219.6 243.307 216.533 240.907 215.733C239.707 215.333 240.774 213.2 243.707 209.6C250.107 201.6 254.907 191.467 256.774 181.467C257.707 176.8 258.907 173.2 259.44 173.467C259.974 173.867 261.574 176.8 263.04 180ZM55.7068 180.667C57.1735 189.733 61.8402 200.4 67.3068 207.467C71.3068 212.4 72.3735 214.667 71.3068 215.867C70.2402 217.2 71.3068 218.667 75.8402 221.867C94.6402 235.333 104.507 246.667 108.64 259.333C110.24 264.133 112.374 268.667 113.44 269.467C115.44 271.2 118.24 279.333 117.174 280.533C115.84 281.867 110.774 275.6 110.507 272C110.24 270.133 109.44 267.867 108.774 266.933C92.6402 246.133 69.1735 219.333 67.5735 219.867C65.7068 220.667 50.9068 208 47.0402 202.4C45.9735 200.667 43.8402 198.533 42.5068 197.467C40.1068 195.733 40.1068 195.6 42.7735 191.867C44.2402 189.733 47.0402 184.8 49.0402 180.933C51.0402 177.067 53.0402 174.267 53.7068 174.533C54.3735 174.933 55.1735 177.733 55.7068 180.667ZM163.174 262.667C166.24 264.4 165.707 264.533 155.84 264.533C145.974 264.533 145.44 264.4 148.507 262.667C150.374 261.6 153.707 260.8 155.84 260.8C158.107 260.8 161.307 261.6 163.174 262.667ZM163.174 269.733C163.174 270.267 161.44 272.8 159.44 275.2L155.707 279.6L152.24 274.933C150.24 272.4 149.04 270 149.44 269.467C150.64 268.267 163.174 268.533 163.174 269.733ZM160.507 296.133C163.707 297.733 164.374 298.667 163.04 299.467C160.774 300.8 152.374 301.067 149.174 299.733C147.307 299.067 147.707 298.533 151.307 296.533C153.84 295.2 155.84 294.133 155.974 294C155.974 294 158.107 294.933 160.507 296.133ZM145.307 298.267C146.507 300.133 145.04 301.067 141.974 300C138.24 298.933 138.24 295.333 141.84 296.267C143.307 296.667 144.907 297.6 145.307 298.267ZM172.24 298.267C171.307 300.8 167.174 301.2 167.174 298.8C167.174 297.467 168.374 296.667 169.974 296.667C171.574 296.667 172.507 297.333 172.24 298.267Z"
    fill="#AE1839" />
  <path
    d="M220.774 32.2666C213.707 41.7333 204.107 58.9333 202.507 64.6666C202.107 66.5333 204.374 63.0666 207.574 57.2C212.64 47.8666 219.04 38.1333 227.04 27.0666C228.107 25.7333 228.507 24.2666 228.24 23.8666C227.84 23.4666 224.507 27.3333 220.774 32.2666Z"
    fill="#AE1839" />
  <path
    d="M86.1068 27.3333C87.4402 29.2 90.6402 34 93.4402 38C96.2402 42 101.307 50.6667 104.774 57.3333C112.107 71.3333 113.174 71.3333 106.64 57.4667C101.84 46.9333 90.3735 29.0667 86.3735 26C83.9735 24.1333 83.9735 24.1333 86.1068 27.3333Z"
    fill="#AE1839" />
  <path
    d="M96.6402 119.333C96.5068 132.933 103.174 142.267 120.107 152.267C125.44 155.467 130.774 159.867 132.374 162.267C135.974 167.867 135.974 164.8 132.507 157.867C129.707 152.533 124.24 146.667 108.907 132.667C102.507 126.933 100.24 123.733 98.7735 118.667L96.6402 112V119.333Z"
    fill="#AE1839" />
  <path
    d="M212.374 120.8C209.974 126 206.507 130.133 201.04 134.8C189.574 144.4 184.774 149.6 180.507 157.2C175.307 166.133 175.44 167.2 181.174 160.8C183.84 158 190.107 153.067 195.174 150.133C200.24 147.067 206.24 142.4 208.507 139.6C213.04 134.133 216.907 122.8 216.24 117.067C215.84 113.733 215.574 114 212.374 120.8Z"
    fill="#AE1839" />
  <path
    d="M83.4402 164.8C92.5068 182 97.8402 188.133 109.84 194.667C115.04 197.6 120.907 201.733 122.774 203.867C129.574 212 134.907 226.4 135.307 238.4C135.44 240.8 136.107 238.8 136.774 234C139.707 212.133 131.707 183.467 119.707 172.8C116.107 169.6 110.907 166.8 106.24 165.467C91.9735 161.2 86.9068 159.067 82.5068 155.2C80.1068 153.067 77.7068 151.333 77.1735 151.333C76.7735 151.333 79.4402 157.467 83.4402 164.8ZM103.574 170.133C113.44 173.467 120.64 179.867 125.174 189.6C128.373 196.267 129.44 200.667 127.707 200.667C127.307 200.667 125.04 199.067 122.64 197.2C120.374 195.333 113.974 190.933 108.507 187.467C100.374 182.4 97.8402 179.867 94.7735 174.267C90.3735 166.133 90.9068 165.867 103.574 170.133Z"
    fill="#AE1839" />
  <path
    d="M150.64 154.133C146.374 157.467 145.84 164.4 149.707 167.867C153.44 171.2 160.24 170.133 163.574 165.733C165.84 162.667 165.974 161.6 164.64 158.267C163.174 154.8 158.507 151.333 155.307 151.333C154.64 151.333 152.64 152.533 150.64 154.133ZM158.773 160.133C159.84 162.8 156.507 164.933 154.24 163.067C152.907 162 152.907 161.2 153.973 159.867C155.973 157.467 157.707 157.467 158.773 160.133Z"
    fill="#AE1839" />
  <path
    d="M229.84 155.333C227.307 157.467 221.04 160.4 215.84 162C201.84 166.133 193.174 170.667 189.307 175.6C184.24 182.4 179.574 193.6 177.174 204.4C174.907 215.467 174.374 242.667 176.507 241.333C177.307 240.933 177.84 237.867 177.84 234.667C177.84 226.267 182.107 213.733 187.574 206.4C191.04 201.733 195.04 198.4 201.974 194.667C207.44 191.733 213.84 187.2 216.507 184.533C220.774 180 236.107 153.2 234.907 152C234.774 151.733 232.374 153.2 229.84 155.333ZM220.507 168C220.507 168.4 219.307 171.067 217.84 173.867C214.774 180 209.174 184.933 200.24 189.467C196.64 191.333 191.307 194.933 188.24 197.733L182.774 202.667L183.84 198C185.174 191.733 190.64 181.6 195.174 177.333C200.774 171.867 220.507 164.667 220.507 168Z"
    fill="#AE1839" />
  <path
    d="M247.173 176.133C245.04 179.867 236.773 187.067 226.373 194.133C216.773 200.667 199.173 214.4 199.707 215.067C200.64 215.867 217.04 207.067 225.307 201.333C234.773 194.533 247.44 180.8 249.173 175.333C250.373 171.6 249.307 172 247.173 176.133Z"
    fill="#AE1839" />
  <path
    d="M63.5735 175.867C64.1068 177.2 64.5068 178.933 64.5068 179.6C64.5068 180.4 64.9068 180.8 65.3068 180.267C65.8402 179.867 68.6402 182.933 71.7068 187.067C75.1735 191.733 81.1735 197.333 87.3068 201.467C97.4402 208.533 111.04 215.867 111.974 214.933C112.64 214.267 98.3735 202.933 85.0402 193.6C79.0402 189.467 71.5735 183.2 68.5068 179.867C65.3068 176.4 63.1735 174.667 63.5735 175.867Z"
    fill="#AE1839" />
  <path
    d="M153.974 183.2C152.507 184.133 152.374 185.867 153.84 193.2C154.774 198.133 155.707 201.867 156.107 201.467C156.374 201.2 157.44 197.467 158.507 193.2C159.707 187.733 159.84 184.8 158.907 183.733C157.307 181.733 156.507 181.6 153.974 183.2Z"
    fill="#AE1839" />
  <path fill-rule="evenodd" clip-rule="evenodd"
    d="M92.1068 24.2667C109.974 43.6 124.774 69.3333 130.107 90.6666C131.84 97.3333 133.84 103.2 134.774 103.733C137.04 105.067 140.507 117.2 140.64 123.867L140.774 129.333L142.107 123.333C143.307 117.733 142.107 99.7333 139.707 88.2666C138.907 85.0666 139.174 84.6666 142.64 84.6666C144.774 84.6666 147.707 84.2666 149.307 83.8666C152.085 83.2052 152.107 83.5938 153.018 99.8781L153.04 100.267C155.44 148.533 156.907 150.8 158.507 108.8L159.574 83.4666L165.707 84.2666C169.04 84.6666 172.107 85.2 172.24 85.4666C172.507 85.6 172.107 90 171.307 95.2C170.507 100.267 169.974 109.733 169.974 116.267L170.107 128L171.707 120C172.64 115.6 174.24 109.6 175.307 106.667L177.174 101.333L178.774 112L179.04 106.533C179.574 91.6 189.44 66.1333 202.374 46.8C209.707 35.8667 226.374 16.6667 228.64 16.6667C229.307 16.6667 231.04 19.0667 232.507 22.1333L235.307 27.4666L229.307 34.1333C220.64 43.7333 211.04 58.9333 201.84 77.3333C195.04 90.9333 193.707 94.5333 193.307 102C193.04 106.8 193.04 108.933 193.44 106.933C193.974 103.467 194.374 103.2 197.574 104C204.64 105.733 219.84 113.333 227.04 119.067C235.707 125.733 247.574 139.067 251.44 146.667C253.84 151.333 254.107 153.6 253.574 166.667C252.374 192.267 246.507 202.933 224.507 220C205.574 234.667 199.84 243.2 193.707 265.333C189.974 279.333 186.64 285.467 181.44 288.667C175.974 292.133 167.707 292 162.107 288.667L157.707 286L160.374 282.267C161.707 280.267 165.04 276.533 167.707 274.133C170.374 271.6 172.507 268.667 172.507 267.6C172.507 266.667 170.774 264 168.64 261.867C165.174 258.4 163.84 258 156.24 258C148.507 258 147.307 258.4 143.44 262.133C141.04 264.4 139.174 266.8 139.174 267.467C139.174 268.133 142.507 272.133 146.507 276.133C150.507 280.267 153.84 284.4 153.84 285.333C153.84 287.867 145.574 291.333 139.44 291.333C135.574 291.333 132.907 290.4 129.84 287.867C124.507 283.333 122.774 279.733 118.507 264.667C112.374 242.667 106.24 233.867 87.0402 219.333C65.3068 202.667 59.1735 190.267 59.1735 163.333C59.3068 147.067 60.1068 145.067 73.7068 129.867C82.9068 119.733 96.1068 110.4 107.574 106.133C117.307 102.533 117.84 102.667 117.84 106.667C117.84 108.533 118.374 110 118.907 110C119.574 110 119.44 105.6 118.774 100.267C117.84 92.6666 115.974 87.6 110.24 76.2666C101.84 59.7333 89.7068 40.8 82.3735 32.8L77.4402 27.2L79.8402 22C81.1735 19.0667 82.9068 16.6667 83.5735 16.6667C84.3735 16.6667 88.2402 20.1333 92.1068 24.2667ZM202.507 64.6666C204.107 58.9333 213.707 41.7333 220.774 32.2666C224.507 27.3333 227.84 23.4666 228.24 23.8666C228.507 24.2666 228.107 25.7333 227.04 27.0666C219.04 38.1333 212.64 47.8666 207.574 57.2C204.374 63.0666 202.107 66.5333 202.507 64.6666ZM93.4402 38C90.6402 34 87.4402 29.2 86.1068 27.3333C83.9735 24.1333 83.9735 24.1333 86.3735 26C90.3735 29.0667 101.84 46.9333 106.64 57.4667C113.174 71.3333 112.107 71.3333 104.774 57.3333C101.307 50.6667 96.2402 42 93.4402 38ZM120.107 152.267C103.174 142.267 96.5068 132.933 96.6402 119.333V112L98.7735 118.667C100.24 123.733 102.507 126.933 108.907 132.667C124.24 146.667 129.707 152.533 132.507 157.867C135.974 164.8 135.974 167.867 132.374 162.267C130.774 159.867 125.44 155.467 120.107 152.267ZM201.04 134.8C206.507 130.133 209.974 126 212.374 120.8C215.574 114 215.84 113.733 216.24 117.067C216.907 122.8 213.04 134.133 208.507 139.6C206.24 142.4 200.24 147.067 195.174 150.133C190.107 153.067 183.84 158 181.174 160.8C175.44 167.2 175.307 166.133 180.507 157.2C184.774 149.6 189.574 144.4 201.04 134.8ZM109.84 194.667C97.8402 188.133 92.5068 182 83.4402 164.8C79.4402 157.467 76.7735 151.333 77.1735 151.333C77.7068 151.333 80.1068 153.067 82.5068 155.2C86.9068 159.067 91.9735 161.2 106.24 165.467C110.907 166.8 116.107 169.6 119.707 172.8C131.707 183.467 139.707 212.133 136.774 234C136.107 238.8 135.44 240.8 135.307 238.4C134.907 226.4 129.574 212 122.774 203.867C120.907 201.733 115.04 197.6 109.84 194.667ZM149.707 167.867C145.84 164.4 146.374 157.467 150.64 154.133C152.64 152.533 154.64 151.333 155.307 151.333C158.507 151.333 163.174 154.8 164.64 158.267C165.974 161.6 165.84 162.667 163.574 165.733C160.24 170.133 153.44 171.2 149.707 167.867ZM215.84 162C221.04 160.4 227.307 157.467 229.84 155.333C232.374 153.2 234.774 151.733 234.907 152C236.107 153.2 220.774 180 216.507 184.533C213.84 187.2 207.44 191.733 201.974 194.667C195.04 198.4 191.04 201.733 187.574 206.4C182.107 213.733 177.84 226.267 177.84 234.667C177.84 237.867 177.307 240.933 176.507 241.333C174.374 242.667 174.907 215.467 177.174 204.4C179.574 193.6 184.24 182.4 189.307 175.6C193.174 170.667 201.84 166.133 215.84 162ZM226.373 194.133C236.773 187.067 245.04 179.867 247.173 176.133C249.307 172 250.373 171.6 249.173 175.333C247.44 180.8 234.773 194.533 225.307 201.333C217.04 207.067 200.64 215.867 199.707 215.067C199.173 214.4 216.773 200.667 226.373 194.133ZM64.5068 179.6C64.5068 178.933 64.1068 177.2 63.5735 175.867C63.1735 174.667 65.3068 176.4 68.5068 179.867C71.5735 183.2 79.0402 189.467 85.0402 193.6C98.3735 202.933 112.64 214.267 111.974 214.933C111.04 215.867 97.4402 208.533 87.3068 201.467C81.1735 197.333 75.1735 191.733 71.7068 187.067C68.6402 182.933 65.8402 179.867 65.3068 180.267C64.9068 180.8 64.5068 180.4 64.5068 179.6ZM153.84 193.2C152.374 185.867 152.507 184.133 153.974 183.2C156.507 181.6 157.307 181.733 158.907 183.733C159.84 184.8 159.707 187.733 158.507 193.2C157.44 197.467 156.374 201.2 156.107 201.467C155.707 201.867 154.774 198.133 153.84 193.2Z"
    fill="#E11D48" />
  <path
    d="M245.84 45.7333C251.707 71.3333 255.574 105.2 254.374 120.4C253.574 132.533 253.44 132.8 251.174 130.4C248.907 128.133 248.907 127.333 250.507 118.667C251.574 113.467 252.374 106.667 252.374 103.333C252.374 98 252.24 97.6 250.64 99.7333C248.774 102.133 248.774 102.133 247.974 99.7333C247.574 98.4 246.24 92.2667 245.04 86C243.04 74.6667 238.507 62.2666 237.04 63.7333C236.64 64.1333 237.574 70.6666 239.174 78.2666C240.774 85.8666 242.374 98.9333 242.774 107.333L243.574 122.533L236.107 116C230.374 110.8 229.04 108.933 229.974 107.2C233.574 100.4 236.64 67.0666 233.84 65.3333C232.374 64.4 231.574 67.7333 230.64 78.2666C230.24 82.4 229.707 87.2 229.307 88.9333C227.04 100.533 225.174 107.6 224.24 108.133C222.507 109.2 200.774 99.2 199.974 97.0667C197.974 91.8667 220.64 49.7333 232.24 37.2C237.174 31.8666 239.44 27.4667 238.507 24.4C237.84 21.8667 238.107 22 239.84 25.0667C241.04 27.0667 243.707 36.4 245.84 45.7333Z"
    fill="#AE1839" />
  <path
    d="M82.7735 40.5333C89.7068 49.0666 101.84 69.2 106.64 80.2666C108.507 84.5333 110.64 89.3333 111.44 90.8C113.174 94.4 112.507 98 109.84 99.4666C102.907 103.2 88.3735 108.933 87.7068 108.267C86.3735 107.067 84.3735 96.6666 82.5068 81.4666C81.5735 73.4666 79.9735 66.2666 79.1735 65.4666C76.7735 63.3333 78.3735 92.2666 81.1735 102.533C83.1735 110.267 83.1735 110.4 80.2402 112.4C78.5068 113.6 75.4402 116.267 73.3068 118.4L69.4402 122.133L70.2402 105.067C70.7735 95.4667 72.2402 83.0666 73.7068 76.6666C77.0402 62.9333 77.0402 62.5333 74.6402 64.6666C72.2402 66.6666 69.1735 76 67.1735 87.3333C66.3735 92.1333 65.3068 97.4666 65.0402 99.3333L64.2402 102.667L62.5068 99.3333C60.6452 96.142 60.6402 96.3986 60.5079 103.145L60.5068 103.2C60.5068 107.2 61.1735 114.133 61.9735 118.8C63.0402 125.2 63.0402 127.733 61.7068 130.267C59.9735 133.2 59.9735 133.2 59.0402 128C57.5735 120.133 57.7068 102.8 59.1735 90C61.1735 73.7333 66.9068 44.4 70.1068 34.2667L72.7735 25.4666L74.9068 29.3333C75.9735 31.6 79.5735 36.5333 82.7735 40.5333Z"
    fill="#AE1839" />
  <path
    d="M82.7735 11.7333C82.5068 12.5333 81.0402 14 79.4402 15.0667C76.7735 16.8 76.5068 16.8 76.5068 14.4C76.5068 13.0667 77.1735 11.2 77.9735 10.4C79.7068 8.66666 83.4402 9.73334 82.7735 11.7333Z"
    fill="#AE1839" />
  <path
    d="M237.84 17.2C237.84 19.2 237.174 18.9333 233.574 15.4666C229.974 12 229.574 10.9333 231.174 10C233.574 8.53333 237.707 13.0666 237.84 17.2Z"
    fill="#AE1839" />
  <path
    d="M220.507 168C220.507 168.4 219.307 171.067 217.84 173.867C214.774 180 209.174 184.933 200.24 189.467C196.64 191.333 191.307 194.933 188.24 197.733L182.774 202.667L183.84 198C185.174 191.733 190.64 181.6 195.174 177.333C200.774 171.867 220.507 164.667 220.507 168Z"
    fill="#AE1839" />
  <path
    d="M103.574 170.133C113.44 173.467 120.64 179.867 125.174 189.6C128.373 196.267 129.44 200.667 127.707 200.667C127.307 200.667 125.04 199.067 122.64 197.2C120.374 195.333 113.974 190.933 108.507 187.467C100.374 182.4 97.8402 179.867 94.7735 174.267C90.3735 166.133 90.9068 165.867 103.574 170.133Z"
    fill="#AE1839" />
  <path
    d="M163.174 262.667C166.24 264.4 165.707 264.533 155.84 264.533C145.974 264.533 145.44 264.4 148.507 262.667C150.374 261.6 153.707 260.8 155.84 260.8C158.107 260.8 161.307 261.6 163.174 262.667Z"
    fill="#AE1839" />
  <path
    d="M163.174 269.733C163.174 270.267 161.44 272.8 159.44 275.2L155.707 279.6L152.24 274.933C150.24 272.4 149.04 270 149.44 269.467C150.64 268.267 163.174 268.533 163.174 269.733Z"
    fill="#AE1839" />
  <path
    d="M160.507 296.133C163.707 297.733 164.374 298.667 163.04 299.467C160.774 300.8 152.374 301.067 149.174 299.733C147.307 299.067 147.707 298.533 151.307 296.533C153.84 295.2 155.84 294.133 155.974 294C155.974 294 158.107 294.933 160.507 296.133Z"
    fill="#AE1839" />
  <path
    d="M172.24 298.267C171.307 300.8 167.174 301.2 167.174 298.8C167.174 297.467 168.374 296.667 169.974 296.667C171.574 296.667 172.507 297.333 172.24 298.267Z"
    fill="#AE1839" />
  <path
    d="M145.307 298.267C146.507 300.133 145.04 301.067 141.974 300C138.24 298.933 138.24 295.333 141.84 296.267C143.307 296.667 144.907 297.6 145.307 298.267Z"
    fill="#AE1839" />
  <path
    d="M263.04 180C264.507 183.333 267.307 188.133 269.307 190.667L272.774 195.333L259.974 208C252.507 215.333 246.374 220.267 245.307 219.867C243.307 219.067 236.907 226.133 214.774 253.333C205.44 264.8 201.04 271.067 201.84 272C202.64 273.067 201.44 275.067 198.374 278.133L193.707 282.667L194.64 278.667C195.84 273.467 197.574 270 199.174 270C199.84 270 201.307 266.533 202.507 262.4C203.707 258.133 205.574 253.067 206.64 251.2C209.574 245.333 221.707 232.8 230.507 226.533C240.374 219.6 243.307 216.533 240.907 215.733C239.707 215.333 240.774 213.2 243.707 209.6C250.107 201.6 254.907 191.467 256.774 181.467C257.707 176.8 258.907 173.2 259.44 173.467C259.974 173.867 261.574 176.8 263.04 180Z"
    fill="#AE1839" />
  <path
    d="M55.7068 180.667C57.1735 189.733 61.8402 200.4 67.3068 207.467C71.3068 212.4 72.3735 214.667 71.3068 215.867C70.2402 217.2 71.3068 218.667 75.8402 221.867C94.6402 235.333 104.507 246.667 108.64 259.333C110.24 264.133 112.374 268.667 113.44 269.467C115.44 271.2 118.24 279.333 117.174 280.533C115.84 281.867 110.774 275.6 110.507 272C110.24 270.133 109.44 267.867 108.774 266.933C92.6402 246.133 69.1735 219.333 67.5735 219.867C65.7068 220.667 50.9068 208 47.0402 202.4C45.9735 200.667 43.8402 198.533 42.5068 197.467C40.1068 195.733 40.1068 195.6 42.7735 191.867C44.2402 189.733 47.0402 184.8 49.0402 180.933C51.0402 177.067 53.0402 174.267 53.7068 174.533C54.3735 174.933 55.1735 177.733 55.7068 180.667Z"
    fill="#AE1839" />
  <path
    d="M158.773 160.133C159.84 162.8 156.507 164.933 154.24 163.067C152.907 162 152.907 161.2 153.973 159.867C155.973 157.467 157.707 157.467 158.773 160.133Z"
    fill="#AE1839" />
</svg>